<svg width="24" height="24" viewBox="0 0 24 24" fill="none" xmlns="http://www.w3.org/2000/svg">
<path d="M6.29029 14.1604C5.40631 13.2764 4.96432 12.8344 4.75468 12.2672C4.54505 11.7 4.59338 11.0768 4.69005 9.83035L4.89807 7.14833C4.98515 6.02552 5.02869 5.46412 5.3931 5.1129C5.75751 4.76167 6.32013 4.73884 7.44538 4.69318L9.94693 4.59167C11.1376 4.54335 11.733 4.51919 12.2715 4.72956C12.81 4.93994 13.2313 5.36126 14.074 6.2039L18.9549 11.0849C20.4768 12.6067 21.2378 13.3677 21.2378 14.3133C21.2378 15.2588 20.4768 16.0198 18.9549 17.5416L17.5416 18.955C16.0197 20.4768 15.2588 21.2378 14.3132 21.2378C13.3677 21.2378 12.6067 20.4768 11.0848 18.955L6.29029 14.1604Z" stroke="black" stroke-width="1.25"/>
<path d="M9.17236 8.55469C9.17236 8.83083 8.94851 9.05469 8.67236 9.05469C8.39622 9.05469 8.17236 8.83083 8.17236 8.55469C8.17236 8.27855 8.39622 8.05469 8.67236 8.05469C8.94851 8.05469 9.17236 8.27855 9.17236 8.55469Z" stroke="black" stroke-width="1.25"/>
</svg>
